PathFileType	4	(X/Y/Z)	 2.5Hzhigh3min.trc
DataRate	CameraRate	NumFrames	NumMarkers	Units	OrigDataRate	OrigDataStartFrame	OrigNumFrames
200	200	9	35	m	200	751	1000
Frame#	Time	C7			LSH			RSH			MAN			RASI			LASI			HIPR			HIPL			RPSI			LPSI			COX			RTHI1			RTHI2			RTHI3			RTHI4			RSHA1			RSHA2			RSHA3			RSHA4			RHEEL			RMET5			RMET1			RTOE			LTHI1			LTHI2			LTHI3			LTHI4			LSHA1			LSHA2			LSHA3			LSHA4			LHEEL			LMET5			LMET1			LTOE			
		X1	Y1	Z1	X2	Y2	Z2	X3	Y3	Z3	X4	Y4	Z4	X5	Y5	Z5	X6	Y6	Z6	X7	Y7	Z7	X8	Y8	Z8	X9	Y9	Z9	X10	Y10	Z10	X11	Y11	Z11	X12	Y12	Z12	X13	Y13	Z13	X14	Y14	Z14	X15	Y15	Z15	X16	Y16	Z16	X17	Y17	Z17	X18	Y18	Z18	X19	Y19	Z19	X20	Y20	Z20	X21	Y21	Z21	X22	Y22	Z22	X23	Y23	Z23	X24	Y24	Z24	X25	Y25	Z25	X26	Y26	Z26	X27	Y27	Z27	X28	Y28	Z28	X29	Y29	Z29	X30	Y30	Z30	X31	Y31	Z31	X32	Y32	Z32	X33	Y33	Z33	X34	Y34	Z34	X35	Y35	Z35	
751	3.7550	-0.266024	1.456130	-0.536385	-0.195073	1.461181	-0.703100	-0.209740	1.442325	-0.371091	-0.135866	1.413775	-0.532110	-0.117650	1.019585	-0.423005	-0.117980	1.012142	-0.647402	-0.179105	1.072286	-0.395961	-0.167647	1.081251	-0.671560	-0.271378	1.057370	-0.483350	-0.271091	1.057506	-0.583588	-0.273803	1.066676	-0.532301	-0.198381	0.816066	-0.357810	-0.174240	0.761733	-0.359132	-0.114129	0.786391	-0.364670	-0.132314	0.844909	-0.364714	-0.212557	0.414253	-0.364623	-0.226068	0.373461	-0.369853	-0.167216	0.362389	-0.380331	-0.158458	0.401713	-0.378992	-0.290427	0.146517	-0.428365	-0.164913	0.044631	-0.388628	-0.141318	0.046171	-0.460249	-0.118905	0.035485	-0.450922	-0.209267	0.828343	-0.712809	-0.190758	0.769342	-0.715283	-0.127824	0.783397	-0.712624	-0.137219	0.842708	-0.709934	-0.260303	0.400337	-0.705740	-0.270888	0.360941	-0.703550	-0.210035	0.350502	-0.716071	-0.207419	0.394416	-0.716337	-0.326839	0.146948	-0.667853	-0.206642	0.058016	-0.726850	-0.166862	0.053506	-0.666918	-0.148360	0.041030	-0.672300	
752	3.7600	-0.265871	1.452368	-0.536293	-0.194360	1.456808	-0.703041	-0.209122	1.438138	-0.370771	-0.135648	1.409404	-0.531962	-0.117783	1.015674	-0.422827	-0.118098	1.008416	-0.647225	-0.179545	1.068174	-0.395840	-0.168138	1.077344	-0.671410	-0.271616	1.053076	-0.483250	-0.271329	1.053352	-0.583463	-0.274017	1.062437	-0.532161	-0.197811	0.811915	-0.358109	-0.173439	0.757676	-0.359333	-0.113406	0.782578	-0.364723	-0.131850	0.841018	-0.364919	-0.211253	0.410489	-0.364426	-0.225057	0.369772	-0.369713	-0.166292	0.358338	-0.380277	-0.157299	0.397570	-0.378972	-0.291607	0.143238	-0.428457	-0.166478	0.041238	-0.387719	-0.142393	0.043072	-0.460056	-0.119923	0.032930	-0.450807	-0.208267	0.824456	-0.712875	-0.189636	0.765450	-0.715190	-0.126745	0.779562	-0.712043	-0.136224	0.838865	-0.709405	-0.259007	0.396909	-0.706467	-0.270008	0.357680	-0.704341	-0.209116	0.346620	-0.716071	-0.206071	0.390515	-0.716466	-0.328380	0.144010	-0.668411	-0.207886	0.054663	-0.726119	-0.168610	0.050433	-0.665784	-0.150024	0.038082	-0.670882	
753	3.7650	-0.265819	1.448355	-0.536220	-0.193749	1.452236	-0.702949	-0.208571	1.433756	-0.370467	-0.135477	1.404817	-0.531807	-0.117906	1.011504	-0.422654	-0.118201	1.004460	-0.647076	-0.179961	1.063768	-0.395694	-0.168625	1.073213	-0.671303	-0.271832	1.048506	-0.483157	-0.271553	1.048946	-0.583335	-0.274212	1.057941	-0.532025	-0.197202	0.807470	-0.358441	-0.172585	0.753326	-0.359565	-0.112640	0.778517	-0.364868	-0.131358	0.836862	-0.365155	-0.209942	0.406516	-0.364089	-0.224122	0.365900	-0.369517	-0.165468	0.354018	-0.380179	-0.156159	0.393158	-0.378822	-0.293385	0.139666	-0.428419	-0.168066	0.038116	-0.386733	-0.143502	0.040605	-0.460054	-0.120829	0.031134	-0.451049	-0.207268	0.820234	-0.712888	-0.188494	0.761250	-0.715040	-0.125657	0.775470	-0.711415	-0.135260	0.834751	-0.708859	-0.257650	0.393278	-0.707169	-0.269096	0.354257	-0.705131	-0.208185	0.342525	-0.716059	-0.204681	0.386395	-0.716598	-0.330110	0.140939	-0.668983	-0.209402	0.051140	-0.725517	-0.170510	0.047422	-0.664709	-0.151801	0.035347	-0.669492	
754	3.7700	-0.265830	1.444039	-0.536133	-0.193243	1.447475	-0.702818	-0.208084	1.429195	-0.370180	-0.135339	1.400004	-0.531647	-0.118030	1.007073	-0.422490	-0.118296	1.000272	-0.646959	-0.180334	1.059067	-0.395518	-0.169095	1.068845	-0.671245	-0.272035	1.043676	-0.483067	-0.271767	1.044291	-0.583214	-0.274391	1.053190	-0.531884	-0.196567	0.802734	-0.358768	-0.171682	0.748690	-0.359806	-0.111858	0.774193	-0.365071	-0.130848	0.832437	-0.365410	-0.208661	0.402347	-0.363640	-0.223291	0.361887	-0.369279	-0.164778	0.349447	-0.380057	-0.155082	0.388477	-0.378596	-0.295744	0.135808	-0.428176	-0.169582	0.035457	-0.385725	-0.144500	0.038850	-0.460188	-0.121529	0.029985	-0.451525	-0.206276	0.815663	-0.712855	-0.187323	0.756738	-0.714837	-0.124553	0.771120	-0.710739	-0.134314	0.830365	-0.708281	-0.256253	0.389438	-0.707830	-0.268171	0.350664	-0.705910	-0.207269	0.338220	-0.716057	-0.203276	0.382066	-0.716739	-0.332048	0.137679	-0.669522	-0.211153	0.047561	-0.725161	-0.172417	0.044649	-0.663830	-0.153526	0.033015	-0.668231	
755	3.7750	-0.265905	1.439422	-0.536028	-0.192865	1.442539	-0.702649	-0.207662	1.424467	-0.369918	-0.135235	1.394963	-0.531479	-0.118158	1.002388	-0.422340	-0.118380	0.995850	-0.646873	-0.180678	1.054072	-0.395314	-0.169533	1.064240	-0.671245	-0.272244	1.038594	-0.482980	-0.271981	1.039381	-0.583101	-0.274579	1.048192	-0.531748	-0.195911	0.797693	-0.359066	-0.170733	0.743777	-0.360058	-0.111048	0.769617	-0.365322	-0.130340	0.827763	-0.365677	-0.207414	0.398015	-0.363106	-0.222569	0.357780	-0.369014	-0.164238	0.344662	-0.379950	-0.154062	0.383578	-0.378290	-0.298634	0.131806	-0.427737	-0.170926	0.033421	-0.384768	-0.145359	0.037755	-0.460321	-0.122035	0.029350	-0.452062	-0.205292	0.810756	-0.712828	-0.186118	0.751912	-0.714590	-0.123430	0.766502	-0.710016	-0.133396	0.825714	-0.707713	-0.254850	0.385447	-0.708511	-0.267256	0.346903	-0.706688	-0.206384	0.333724	-0.716082	-0.201888	0.377535	-0.716899	-0.334221	0.134172	-0.670001	-0.213040	0.044107	-0.725155	-0.174187	0.042310	-0.663230	-0.155041	0.031277	-0.667194	
756	3.7800	-0.266047	1.434509	-0.535901	-0.192625	1.437446	-0.702442	-0.207307	1.419583	-0.369687	-0.135179	1.389732	-0.531305	-0.118288	0.997467	-0.422199	-0.118451	0.991203	-0.646825	-0.180988	1.048794	-0.395075	-0.169930	1.059388	-0.671309	-0.272482	1.033266	-0.482897	-0.272209	1.034225	-0.583000	-0.274784	1.042954	-0.531616	-0.195239	0.792357	-0.359326	-0.169737	0.738586	-0.360283	-0.110209	0.764805	-0.365570	-0.129839	0.822836	-0.365943	-0.206187	0.393573	-0.362543	-0.221910	0.353629	-0.368719	-0.163809	0.339736	-0.379889	-0.153083	0.378502	-0.377981	-0.301845	0.127802	-0.427173	-0.172053	0.031954	-0.383945	-0.146184	0.037172	-0.460393	-0.122462	0.029065	-0.452535	-0.204307	0.805516	-0.712825	-0.184877	0.746769	-0.714321	-0.122288	0.761619	-0.709255	-0.132510	0.820813	-0.707176	-0.253485	0.381307	-0.709203	-0.266386	0.342994	-0.707462	-0.205568	0.329066	-0.716155	-0.200550	0.372825	-0.717090	-0.336633	0.130429	-0.670427	-0.214941	0.040970	-0.725541	-0.175660	0.040517	-0.662977	-0.156179	0.030080	-0.666469	
757	3.7850	-0.266257	1.429314	-0.535750	-0.192532	1.432214	-0.702201	-0.207025	1.414559	-0.369486	-0.135163	1.384315	-0.531130	-0.118431	0.992326	-0.422061	-0.118512	0.986345	-0.646813	-0.181262	1.043261	-0.394798	-0.170276	1.054287	-0.671438	-0.272772	1.027706	-0.482818	-0.272457	1.028834	-0.582917	-0.275015	1.037490	-0.531494	-0.194553	0.786749	-0.359530	-0.168679	0.733156	-0.360448	-0.109339	0.759811	-0.365777	-0.129361	0.817684	-0.366176	-0.204894	0.389094	-0.361972	-0.221212	0.349484	-0.368385	-0.163396	0.334753	-0.379887	-0.152066	0.373339	-0.377702	-0.305095	0.123884	-0.426546	-0.173088	0.030886	-0.383249	-0.146997	0.036936	-0.460405	-0.122812	0.028950	-0.452937	-0.203331	0.799944	-0.712851	-0.183607	0.741324	-0.714071	-0.121127	0.756479	-0.708488	-0.131658	0.815654	-0.706690	-0.252188	0.377062	-0.709899	-0.265598	0.338967	-0.708215	-0.204870	0.324272	-0.716285	-0.199302	0.367962	-0.717317	-0.339249	0.126520	-0.670840	-0.216745	0.038323	-0.726297	-0.176770	0.039288	-0.663120	-0.156910	0.029349	-0.666078	
758	3.7900	-0.266536	1.423856	-0.535572	-0.192585	1.426866	-0.701940	-0.206832	1.409418	-0.369322	-0.135181	1.378742	-0.530955	-0.118600	0.986995	-0.421920	-0.118560	0.981303	-0.646838	-0.181496	1.037488	-0.394481	-0.170570	1.048931	-0.671630	-0.273136	1.021928	-0.482748	-0.272735	1.023227	-0.582862	-0.275268	1.031809	-0.531379	-0.193864	0.780900	-0.359683	-0.167562	0.727527	-0.360521	-0.108448	0.754666	-0.365901	-0.128921	0.812363	-0.366326	-0.203442	0.384636	-0.361457	-0.220368	0.345378	-0.368041	-0.162862	0.329789	-0.379945	-0.150912	0.368177	-0.377511	-0.308191	0.120099	-0.425896	-0.174051	0.030074	-0.382632	-0.147730	0.036862	-0.460342	-0.123088	0.028858	-0.453210	-0.202358	0.794066	-0.712923	-0.182310	0.735598	-0.713877	-0.119954	0.751084	-0.707756	-0.130829	0.810252	-0.706264	-0.250981	0.372762	-0.710561	-0.264926	0.334876	-0.708917	-0.204328	0.319376	-0.716466	-0.198175	0.362982	-0.717565	-0.341979	0.122572	-0.671329	-0.218331	0.036272	-0.727272	-0.177630	0.038528	-0.663539	-0.157364	0.028963	-0.665961	
759	3.7950	-0.266905	1.418190	-0.535386	-0.192794	1.421432	-0.701676	-0.206743	1.404175	-0.369187	-0.135226	1.373048	-0.530777	-0.118799	0.981513	-0.421767	-0.118593	0.976102	-0.646899	-0.181715	1.031506	-0.394120	-0.170810	1.043336	-0.671888	-0.273596	1.015947	-0.482689	-0.273055	1.017411	-0.582831	-0.275570	1.025936	-0.531286	-0.193177	0.774881	-0.359778	-0.166384	0.721776	-0.360472	-0.107518	0.749454	-0.365834	-0.128529	0.806955	-0.366346	-0.201731	0.380224	-0.360985	-0.219259	0.341311	-0.367689	-0.162083	0.324904	-0.380071	-0.149518	0.363086	-0.377425	-0.311013	0.116474	-0.425292	-0.174867	0.029410	-0.382085	-0.148365	0.036834	-0.460244	-0.123291	0.028778	-0.453431	-0.201396	0.787916	-0.713033	-0.180997	0.729615	-0.713769	-0.118773	0.745461	-0.707128	-0.130016	0.804605	-0.705905	-0.249875	0.368466	-0.711142	-0.264376	0.330788	-0.709526	-0.203948	0.314448	-0.716683	-0.197177	0.357944	-0.717821	-0.344704	0.118703	-0.671957	-0.219628	0.034775	-0.728290	-0.178338	0.038127	-0.664063	-0.157642	0.028783	-0.666001	
